<svg xmlns="http://www.w3.org/2000/svg" width="368.14" height="271.962" viewBox="0 0 368.14 271.962"><defs><style>.prefix__cls-6{fill:#f496ae}.prefix__cls-3{fill:#f1829f}.prefix__cls-5{fill:#ffadcc}.prefix__cls-7{fill:#fff}.prefix__cls-8{fill:#e3e6e8}.prefix__cls-9{fill:#ccced0}.prefix__cls-10{fill:#b3b5b7}.prefix__cls-11{fill:#ec8094}.prefix__cls-12{fill:#e7627b}.prefix__cls-13{fill:#ff87b4}.prefix__cls-14{fill:#fae7ca}.prefix__cls-15{fill:#e2d1b7}.prefix__cls-16{fill:#f49222}</style></defs><g id="prefix__Group_5425" data-name="Group 5425" transform="translate(-5342.698 11444.343)"><g id="prefix__Group_5424" data-name="Group 5424" transform="translate(5277 -11023)"><path id="prefix__Path_26748" d="M375.347-188.62c-23.462 0-38.419-17.482-60.736-26.394a122.525 122.525 0 0 0-43.972-8 134.543 134.543 0 0 0-57 12.817c-20.047 9.01-48.321 17.2-74.675 17.2-31.706 0-60.632-11.861-69.071-48.419-5.777-24.844 2.717-42.251 25.531-51.526 8.734-3.4 17.776-8.529 22.709-17.279 6.807-11.684-1.253-29.361-2.77-41.876-4.12-35.746 15.869-45.2 43.233-45.2 15.35 0 33.022 2.975 50.058 5.949S242.09-385.4 254.9-385.4a46.432 46.432 0 0 0 13.871-1.745l-2.059.142c9.465-2.752 14.352-12.2 23.039-16.3a35.516 35.516 0 0 1 14.162-3.116c26.114 0 42.79 32.886 66.806 39.635 12.625 3.342 24.193 1.148 36.956 6.583 15.6 6.644 23.659 24.32 23.441 41.861-1 16.2-13.939 26.67-21.293 40.494-8.726 13.919-5.567 20.012-1.168 34.432 7.744 23.308 3.742 48.346-22.778 53.668a51.279 51.279 0 0 1-10.53 1.126z" data-name="Path 26748" style="opacity:.233;fill:#f496ae"/><path id="prefix__Path_26749" d="M254.58-393.156c-3.547 0-3.547-5.5 0-5.5s3.547 5.5 0 5.5z" data-name="Path 26749" style="fill:#d2edf3"/><path id="prefix__Path_26752" d="M236.018-395.906c-7.094 0-7.094-11 0-11s7.093 11 0 11z" class="prefix__cls-3" data-name="Path 26752"/><path id="prefix__Path_26755" d="M378.33-376.381c-9.222 0-9.222-14.3 0-14.3s9.222 14.3 0 14.3z" data-name="Path 26755" style="fill:#e8d2d7"/><path id="prefix__Path_26756" d="M251.83-404.843c-10.64 0-10.64-16.5 0-16.5s10.641 16.5 0 16.5z" class="prefix__cls-5" data-name="Path 26756"/><path id="prefix__Path_26757" d="M439.243-269.269c-5.32 0-5.32-8.25 0-8.25s5.32 8.25 0 8.25z" class="prefix__cls-3" data-name="Path 26757" transform="translate(-17 -3)"/><path id="prefix__Path_26758" d="M71.155-313.406c-5.321 0-5.321-8.25 0-8.25s5.32 8.25 0 8.25z" class="prefix__cls-3" data-name="Path 26758"/><path id="prefix__Path_26759" d="M395.518-368.406c-5.321 0-5.321-8.25 0-8.25s5.32 8.25 0 8.25z" class="prefix__cls-3" data-name="Path 26759"/><path id="prefix__Path_26760" d="M394.143-383.531c-3.547 0-3.547-5.5 0-5.5s3.546 5.5 0 5.5z" class="prefix__cls-6" data-name="Path 26760"/><path id="prefix__Path_26761" d="M115.568-393.019c-7.093 0-7.093-11 0-11s7.094 11 0 11z" class="prefix__cls-3" data-name="Path 26761"/><path id="prefix__Path_26762" d="M428.518-203.4c-7.094 0-7.094-11 0-11s7.093 11 0 11z" class="prefix__cls-3" data-name="Path 26762"/><path id="prefix__Path_26763" d="M71.018-198.593c-7.094 0-7.094-11 0-11s7.093 11 0 11z" class="prefix__cls-3" data-name="Path 26763"/><path id="prefix__Path_26764" d="M132.068-401.269c-3.547 0-3.547-5.5 0-5.5s3.547 5.5 0 5.5z" class="prefix__cls-3" data-name="Path 26764"/><path id="prefix__Path_26765" d="M429.2-225.4c-3.547 0-3.547-5.5 0-5.5s3.552 5.5 0 5.5z" class="prefix__cls-6" data-name="Path 26765"/><path id="prefix__Path_26766" d="M87.517-191.718c-3.547 0-3.547-5.5 0-5.5s3.547 5.5 0 5.5z" class="prefix__cls-3" data-name="Path 26766"/><path id="prefix__Path_26788" d="M249.631-354.437a1.761 1.761 0 0 0 0-3.521 1.761 1.761 0 0 0 0 3.521z" class="prefix__cls-7" data-name="Path 26788"/><path id="prefix__Path_26926" d="M323.15-158.181a8.8 8.8 0 0 1-8.8 8.8h-128.7a8.8 8.8 0 0 1-8.8-8.8v-17.6a8.8 8.8 0 0 1 8.8-8.8h128.7a8.8 8.8 0 0 1 8.8 8.8z" class="prefix__cls-6" data-name="Path 26926"/><path id="prefix__Path_26927" d="M199.737-174.914h-.556c-.581 0-.992.073-1.234.411l-7.478 10.769a.656.656 0 0 0-.049.267c0 .58.412 1.887.775 1.887h6.727v3.025c0 .436.339.678 1.186.678h.629c.823 0 1.186-.242 1.186-.678v-3.025h1.162c.46 0 .653-.314.653-1.04v-.363c0-.726-.193-1.041-.653-1.041h-1.162v-10.212c0-.436-.363-.678-1.186-.678zm-1.936 4.55.1.024v6.316h-4.332z" class="prefix__cls-7" data-name="Path 26927"/><path id="prefix__Path_26928" d="M209.466-175.035c-3.316 0-5.639 2.977-5.639 8.639s2.323 8.64 5.639 8.64c3.364 0 5.663-2.977 5.663-8.64s-2.299-8.639-5.663-8.639zm.024 2.42c1.5 0 2.614 1.936 2.614 6.219s-1.114 6.22-2.614 6.22-2.589-1.936-2.589-6.22 1.089-6.219 2.589-6.219z" class="prefix__cls-7" data-name="Path 26928"/><path id="prefix__Path_26929" d="M225.631-174.914h-.556c-.581 0-.992.073-1.234.411l-7.478 10.769a.656.656 0 0 0-.049.267c0 .58.412 1.887.775 1.887h6.727v3.025c0 .436.339.678 1.186.678h.629c.823 0 1.186-.242 1.186-.678v-3.025h1.162c.46 0 .653-.314.653-1.04v-.363c0-.726-.193-1.041-.653-1.041h-1.162v-10.212c0-.436-.363-.678-1.186-.678zm-1.936 4.55.1.024v6.316h-4.335z" class="prefix__cls-7" data-name="Path 26929"/><path id="prefix__Path_26930" d="M246.226-174.866h-8.712c-.605 0-.872.267-.872.872v15.2c0 .6.267.871.872.871h8.736c.46 0 .653-.314.653-1.04v-.6c0-.726-.193-1.041-.653-1.041h-6.462v-4.646h5.76c.46 0 .629-.315.629-1.041v-.605c0-.726-.169-1.04-.629-1.04h-5.76v-4.235h6.438c.459 0 .653-.315.653-1.041v-.6c0-.739-.194-1.054-.653-1.054z" class="prefix__cls-7" data-name="Path 26930"/><path id="prefix__Path_26931" d="M255.228-174.866h-4.5c-.605 0-.871.267-.871.872v15.439c0 .436.387.678 1.282.678h.581c.9 0 1.283-.242 1.283-.678v-6.292h1.4a2.566 2.566 0 0 1 2.856 1.767l1.887 4.743c.121.339.63.46 1.235.46h.726c.895 0 1.306-.17 1.306-.46a1.379 1.379 0 0 0-.121-.411l-2.032-5.107a4.082 4.082 0 0 0-1.912-2.516v-.1a4.1 4.1 0 0 0 2.831-3.945c.002-2.949-1.934-4.45-5.951-4.45zm.218 2.687c1.524 0 2.492.774 2.492 2.2a2.371 2.371 0 0 1-2.323 2.4H253v-4.6z" class="prefix__cls-7" data-name="Path 26931"/><path id="prefix__Path_26932" d="M269.99-174.866h-4.5c-.605 0-.871.267-.871.872v15.439c0 .436.387.678 1.282.678h.581c.9 0 1.283-.242 1.283-.678v-6.292h1.4a2.566 2.566 0 0 1 2.856 1.767l1.887 4.743c.121.339.63.46 1.235.46h.726c.895 0 1.306-.17 1.306-.46a1.379 1.379 0 0 0-.121-.411l-2.032-5.107a4.082 4.082 0 0 0-1.912-2.516v-.1a4.1 4.1 0 0 0 2.831-3.945c.002-2.949-1.934-4.45-5.951-4.45zm.218 2.687c1.524 0 2.492.774 2.492 2.2a2.371 2.371 0 0 1-2.323 2.4h-2.613v-4.6z" class="prefix__cls-7" data-name="Path 26932"/><path id="prefix__Path_26933" d="M286.3-175.035c-4.937 0-7.647 3-7.647 8.615s2.71 8.664 7.647 8.664 7.647-3.049 7.647-8.664-2.709-8.615-7.647-8.615zm.024 2.686c2.88 0 4.4 2.057 4.4 5.929 0 3.9-1.524 5.978-4.4 5.978-2.9 0-4.429-2.082-4.429-5.978.005-3.872 1.526-5.929 4.43-5.929z" class="prefix__cls-7" data-name="Path 26933"/><path id="prefix__Path_26934" d="M302.442-174.866h-4.5c-.605 0-.871.267-.871.872v15.439c0 .436.387.678 1.282.678h.581c.9 0 1.283-.242 1.283-.678v-6.292h1.4a2.566 2.566 0 0 1 2.856 1.767l1.888 4.743c.121.339.629.46 1.234.46h.726c.895 0 1.307-.17 1.307-.46a1.411 1.411 0 0 0-.121-.411l-2.033-5.107a4.082 4.082 0 0 0-1.912-2.516v-.1a4.1 4.1 0 0 0 2.831-3.945c.002-2.949-1.934-4.45-5.951-4.45zm.218 2.687c1.525 0 2.493.774 2.493 2.2a2.372 2.372 0 0 1-2.324 2.4h-2.613v-4.6z" class="prefix__cls-7" data-name="Path 26934"/></g><g id="prefix__cake" transform="translate(5429.794 -11423.291)"><path id="prefix__Rectangle_571" d="M0 0h14.728v41.086H0z" class="prefix__cls-8" data-name="Rectangle 571" transform="translate(94.248 146.463)"/><path id="prefix__Path_24847" d="M228.8 348.694c0 12.394-21.063 22.442-47.047 22.442S134.7 361.088 134.7 348.694z" class="prefix__cls-9" data-name="Path 24847" transform="translate(-80.135 -213.45)"/><path id="prefix__Path_24848" d="M146.338 348.694H134.7c0 12.395 21.063 22.442 47.047 22.442q2.955 0 5.818-.171c-23.236-1.365-41.227-10.816-41.227-22.271z" class="prefix__cls-10" data-name="Path 24848" transform="translate(-80.135 -213.45)"/><path id="prefix__Path_24849" d="M338.625 20.878S341.08 7.5 349.262 7.5 359.9 20.878 359.9 20.878l-10.638 6.532z" class="prefix__cls-11" data-name="Path 24849" transform="translate(-204.965 -4.591)"/><path id="prefix__Path_24850" d="M346.382 20.878s1.653-8.99 6.758-12.229a7.12 7.12 0 0 0-3.878-1.149c-8.182 0-10.637 13.378-10.637 13.378l10.637 6.531 3.879-2.382z" class="prefix__cls-12" data-name="Path 24850" transform="translate(-204.965 -4.591)"/><path id="prefix__Path_24851" d="M139.8 20.878S137.347 7.5 129.166 7.5s-10.637 13.378-10.637 13.378l10.637 6.531z" class="prefix__cls-11" data-name="Path 24851" transform="translate(-70.235 -4.591)"/><path id="prefix__Path_24852" d="M126.286 20.878s1.653-8.99 6.758-12.229a7.12 7.12 0 0 0-3.878-1.149c-8.182 0-10.637 13.378-10.637 13.378l10.637 6.531 3.879-2.382z" class="prefix__cls-12" data-name="Path 24852" transform="translate(-70.235 -4.591)"/><path id="prefix__Path_24853" d="M228.577 20.878S231.032 7.5 239.214 7.5s10.636 13.378 10.636 13.378l-10.636 6.532z" class="prefix__cls-11" data-name="Path 24853" transform="translate(-137.6 -4.591)"/><path id="prefix__Path_24854" d="M236.334 20.878s1.653-8.99 6.758-12.229a7.12 7.12 0 0 0-3.878-1.149c-8.182 0-10.637 13.378-10.637 13.378l10.637 6.531 3.879-2.382z" class="prefix__cls-12" data-name="Path 24854" transform="translate(-137.6 -4.591)"/><g id="prefix__Group_5051" data-name="Group 5051" transform="translate(23.16 26.857)"><path id="prefix__Path_24855" d="M88.609 108.617V77.974l6.423-8.73h113.321l10.1 8.73v30.643l-64.92 12.773z" class="prefix__cls-5" data-name="Path 24855" transform="translate(-75.079 -69.244)"/><path id="prefix__Path_24856" d="M210.633 257.008v-42.77l-9.316-10.549H65.086l-11.361 10.549v42.77z" class="prefix__cls-5" data-name="Path 24856" transform="translate(-53.725 -151.544)"/></g><path id="prefix__Path_24857" d="M208.353 69.244H95.032l-6.423 8.73v30.643l64.924 12.773 5.818-1.145-59.107-11.628V87.395a24.743 24.743 0 0 0 21.862-.908 5.369 5.369 0 0 1 5.141 0 24.761 24.761 0 0 0 23.714 0 5.369 5.369 0 0 1 5.141 0 24.761 24.761 0 0 0 23.714 0 5.369 5.369 0 0 1 5.141 0 24.761 24.761 0 0 0 23.714 0 5.369 5.369 0 0 1 5.141 0 14.656 14.656 0 0 0 4.643 1.589v-10.1z" class="prefix__cls-13" data-name="Path 24857" transform="translate(-51.92 -42.387)"/><path id="prefix__Path_24858" d="M199.269 41.993H85.026A15.017 15.017 0 0 0 70.009 57.01a4.878 4.878 0 0 0 7.214 4.282 15.064 15.064 0 0 1 14.428 0 15.064 15.064 0 0 0 14.428 0 15.064 15.064 0 0 1 14.428 0 15.064 15.064 0 0 0 14.428 0 15.064 15.064 0 0 1 14.428 0 15.064 15.064 0 0 0 14.427 0 15.064 15.064 0 0 1 14.428 0 15.064 15.064 0 0 0 14.428 0 15.064 15.064 0 0 1 14.427 0 4.878 4.878 0 0 0 7.214-4.282 15.015 15.015 0 0 0-15.018-15.017z" class="prefix__cls-14" data-name="Path 24858" transform="translate(-40.534 -25.706)"/><path id="prefix__Path_24859" d="M81.645 57.01a15.017 15.017 0 0 1 15.017-15.017H85.026A15.017 15.017 0 0 0 70.009 57.01a4.878 4.878 0 0 0 7.214 4.283 15.042 15.042 0 0 1 5.16-1.694 4.832 4.832 0 0 1-.738-2.589z" class="prefix__cls-15" data-name="Path 24859" transform="translate(-40.534 -25.706)"/><path id="prefix__Path_24860" d="M201.318 203.689H65.087l-11.362 10.549v42.77h11.636v-34.775a8.508 8.508 0 0 1 1.155.518 27.9 27.9 0 0 0 26.72 0 8.508 8.508 0 0 1 8.148 0 27.9 27.9 0 0 0 26.72 0 8.508 8.508 0 0 1 8.148 0 27.9 27.9 0 0 0 26.72 0 8.51 8.51 0 0 1 8.148 0 27.9 27.9 0 0 0 26.72 0 8.508 8.508 0 0 1 8.148 0 15.689 15.689 0 0 0 4.643 1.649v-10.162z" class="prefix__cls-13" data-name="Path 24860" transform="translate(-30.566 -124.687)"/><path id="prefix__Path_24861" d="M187.446 170.759H49.4a18.146 18.146 0 0 0-18.15 18.146 5.894 5.894 0 0 0 8.717 5.175 18.2 18.2 0 0 1 17.434 0 18.2 18.2 0 0 0 17.434 0 18.2 18.2 0 0 1 17.434 0 18.2 18.2 0 0 0 17.434 0 18.2 18.2 0 0 1 17.434 0 18.2 18.2 0 0 0 17.434 0 18.206 18.206 0 0 1 17.434 0 18.2 18.2 0 0 0 17.434 0 18.2 18.2 0 0 1 17.434 0 5.894 5.894 0 0 0 8.717-5.175 18.145 18.145 0 0 0-18.144-18.146z" class="prefix__cls-14" data-name="Path 24861" transform="translate(-16.808 -104.529)"/><path id="prefix__Path_24862" d="M42.886 188.906a18.147 18.147 0 0 1 18.146-18.147H49.4a18.147 18.147 0 0 0-18.15 18.147 5.9 5.9 0 0 0 8.717 5.175 18.181 18.181 0 0 1 4.1-1.624 5.818 5.818 0 0 1-1.181-3.551z" class="prefix__cls-15" data-name="Path 24862" transform="translate(-16.808 -104.529)"/><path id="prefix__Path_24863" d="M184.87 323.53H27.541a16.247 16.247 0 0 0-16.247 16.247h189.823a16.247 16.247 0 0 0-16.247-16.247z" class="prefix__cls-8" data-name="Path 24863" transform="translate(-4.592 -198.046)"/><g id="prefix__Group_5052" data-name="Group 5052" transform="translate(6.702 125.484)"><path id="prefix__Path_24864" d="M39.177 323.53H27.541a16.247 16.247 0 0 0-16.247 16.248H22.93a16.247 16.247 0 0 1 16.247-16.248z" class="prefix__cls-9" data-name="Path 24864" transform="translate(-11.294 -323.53)"/><path id="prefix__Path_24865" d="M220.355 462.61h-34.6a16.248 16.248 0 0 0-16.247 16.247H236.6a16.248 16.248 0 0 0-16.245-16.247z" class="prefix__cls-9" data-name="Path 24865" transform="translate(-108.145 -408.667)"/></g><path id="prefix__Path_24866" d="M197.393 462.61h-11.636a16.248 16.248 0 0 0-16.247 16.247h11.636a16.247 16.247 0 0 1 16.247-16.247z" class="prefix__cls-10" data-name="Path 24866" transform="translate(-101.442 -283.183)"/><path id="prefix__Path_24867" d="M175.818 259.708a2.909 2.909 0 0 0-2.909 2.909v5.306a2.909 2.909 0 0 0 5.818 0v-5.306a2.909 2.909 0 0 0-2.909-2.909z" data-name="Path 24867" transform="translate(-103.523 -158.978)"/><path id="prefix__Path_24868" d="M327 259.708a2.909 2.909 0 0 0-2.909 2.909v5.306a2.909 2.909 0 0 0 5.818 0v-5.306a2.909 2.909 0 0 0-2.909-2.909z" data-name="Path 24868" transform="translate(-196.069 -158.978)"/><path id="prefix__Path_24869" d="M248.183 282.39a2.909 2.909 0 0 1-4.1-.276 9.107 9.107 0 0 0-13.4 0 2.909 2.909 0 1 1-4.381-3.829 14.922 14.922 0 0 1 22.162 0 2.909 2.909 0 0 1-.281 4.105z" data-name="Path 24869" transform="translate(-135.764 -167.333)"/><path id="prefix__Path_24870" d="M6.7 144.64h48.359c6.073 7.988 19.8 13.727 36.281 15.43v16.448h-7.025a19.178 19.178 0 0 0-19.157 19.156 2.948 2.948 0 0 0 2.909 2.91h67.093a2.909 2.909 0 0 0 2.909-2.909 19.178 19.178 0 0 0-19.157-19.156h-7.026V160.07c16.482-1.7 30.208-7.442 36.281-15.43h48.357a2.909 2.909 0 0 0 2.909-2.909 19.183 19.183 0 0 0-16.458-18.963V93.189a8.826 8.826 0 0 0 8.717-8.813 21.079 21.079 0 0 0-21.055-21.056h-1.191V39.078a7.809 7.809 0 0 0 7.214-7.778 17.946 17.946 0 0 0-17.926-17.926h-1.522C155.942 8.961 152.37 0 144.3 0s-11.649 8.961-12.92 13.378h-16.85C113.259 8.961 109.686 0 101.614 0S89.968 8.961 88.7 13.378H71.847C70.576 8.961 67 0 58.931 0S47.286 8.961 46.015 13.378h-1.523A17.946 17.946 0 0 0 26.566 31.3a7.81 7.81 0 0 0 7.214 7.774v24.247h-1.191a21.079 21.079 0 0 0-21.056 21.056 8.826 8.826 0 0 0 8.717 8.813v29.579a19.184 19.184 0 0 0-16.457 18.962A2.909 2.909 0 0 0 6.7 144.64zM138.57 10.782c1.634-3.294 3.56-4.964 5.727-4.964s4.093 1.67 5.727 4.964a23.271 23.271 0 0 1 1.086 2.6h-13.626a23.273 23.273 0 0 1 1.086-2.6zm-42.683 0c1.634-3.294 3.561-4.964 5.727-4.964s4.093 1.67 5.727 4.964a23.269 23.269 0 0 1 1.086 2.6H94.8a23.19 23.19 0 0 1 1.087-2.6zM58.931 5.818c2.167 0 4.093 1.67 5.727 4.964a23.271 23.271 0 0 1 1.086 2.6H52.139c1.137-3.229 3.314-7.564 6.792-7.564zm73 186.947H71.3a13.362 13.362 0 0 1 13.019-10.429h34.6a13.361 13.361 0 0 1 13.012 10.429zM106.069 160.5v16.022h-8.91V160.5h.076q2.188.1 4.379.1t4.379-.1zm2.663-5.985a95.364 95.364 0 0 1-14.236 0c-13.149-.986-24.688-4.654-31.3-9.87h76.843c-6.619 5.212-18.159 8.879-31.307 9.865zM32.384 31.3a12.122 12.122 0 0 1 12.108-12.1h114.243a12.122 12.122 0 0 1 12.108 12.1 1.989 1.989 0 0 1-2.912 1.729 18.087 18.087 0 0 0-17.214 0 12.31 12.31 0 0 1-11.642 0 18.117 18.117 0 0 0-17.214 0 12.6 12.6 0 0 1-11.642 0 17.9 17.9 0 0 0-17.214 0 12.328 12.328 0 0 1-11.642 0 17.9 17.9 0 0 0-16.191-.517c-4.1 1.916-8.5 2.787-12.664.517a17.9 17.9 0 0 0-17.214 0 1.981 1.981 0 0 1-2.91-1.729zM18.813 86.944a2.937 2.937 0 0 1-1.461-2.567 15.255 15.255 0 0 1 15.237-15.238h19.652a2.977 2.977 0 0 0 2.909-2.909 2.909 2.909 0 0 0-2.909-2.909H39.6V37.446a12.163 12.163 0 0 1 5.784-.7 12.41 12.41 0 0 1 4.316 1.381l.026.014a18.17 18.17 0 0 0 17.214 0 12.106 12.106 0 0 1 11.642 0 18.116 18.116 0 0 0 17.214 0 12.107 12.107 0 0 1 11.642 0 18.108 18.108 0 0 0 17.214 0c6.083-3.318 10.476.448 16.344 1.764A18.438 18.438 0 0 0 153.5 38.14l.018-.009a12.189 12.189 0 0 1 10.108-.686v25.876H63.877a2.909 2.909 0 0 0-2.909 2.909 3 3 0 0 0 2.909 2.909h106.762a15.255 15.255 0 0 1 15.237 15.238A3.008 3.008 0 0 1 181.461 87a21.374 21.374 0 0 0-2.514-1.164A21.014 21.014 0 0 0 161.24 87c-6.843 3.732-11.82.514-18.322-1.578A21.227 21.227 0 0 0 126.372 87c-5.783 3.155-11.22 1.235-16.885-1.051A21.184 21.184 0 0 0 91.5 87c-6.55 3.574-11.937.477-18.322-1.578A21.232 21.232 0 0 0 56.635 87c-5.741 3.132-11.073 1.36-16.707-.975a20.982 20.982 0 0 0-14.487-.6c-.029.009-.058.022-.088.031A21.3 21.3 0 0 0 21.766 87a2.937 2.937 0 0 1-2.953-.056zm4.137 41.448h130.91a2.909 2.909 0 1 0 0-5.818H26.068V91.389l.132-.057a15.369 15.369 0 0 1 13 .774 21.029 21.029 0 0 0 20.22 0 15.385 15.385 0 0 1 14.648 0 21.241 21.241 0 0 0 20.22 0 15.233 15.233 0 0 1 14.648 0 21.029 21.029 0 0 0 20.22 0 15.233 15.233 0 0 1 14.648 0 21.559 21.559 0 0 0 20.22 0 15.487 15.487 0 0 1 13.132-.717v31.186H165.5a2.909 2.909 0 1 0 0 5.818h14.782a13.361 13.361 0 0 1 13.019 10.43H9.93a13.362 13.362 0 0 1 13.02-10.431z" data-name="Path 24870"/></g><path id="prefix__Path_26944" d="M308.48-374.731v36.3c0 3.547 5.5 3.547 5.5 0v-36.3c0-3.547-5.5-3.547-5.5 0z" class="prefix__cls-16" data-name="Path 26944" transform="translate(5306 -11052)"/><path id="prefix__Path_26945" d="M311.23-324.406c5.321 0 5.321-8.25 0-8.25s-5.32 8.25 0 8.25z" class="prefix__cls-16" data-name="Path 26945" transform="translate(5306 -11052)"/></g></svg>